<svg version="1.1" width="50%" viewBox="0.0 0.0 960.0 540.0" fill="none" stroke="none" stroke-linecap="square" stroke-miterlimit="10" xmlns="http://www.w3.org/2000/svg" xmlns:xlink="http://www.w3.org/1999/xlink"><clipPath id="gb31174972_0_10.0"><path d="m0 0l960.0 0l0 540.0l-960.0 0l0 -540.0z" clip-rule="nonzero"></path></clipPath><g clip-path="url(#gb31174972_0_10.0)"><path fill="#ffffff" d="m0 0l960.0 0l0 540.0l-960.0 0z" fill-rule="nonzero"></path><path fill="#000000" fill-opacity="0.0" d="m934.4583 278.01468l-241.22833 239.3071l-5.51178 -488.0z" fill-rule="nonzero"></path><path stroke="#a3a819" stroke-width="8.0" stroke-linejoin="round" stroke-linecap="butt" d="m934.4583 278.01468l-241.22833 239.3071l-5.51178 -488.0z" fill-rule="nonzero"></path><path fill="#000000" fill-opacity="0.0" d="m282.88147 270.5028l-125.41733 -123.93701l4.0629883 246.86615z" fill-rule="nonzero"></path><path stroke="#85514a" stroke-width="4.0" stroke-linejoin="round" stroke-linecap="butt" d="m282.88147 270.5028l-125.41733 -123.93701l4.0629883 246.86615z" fill-rule="nonzero"></path><path fill="#000000" fill-opacity="0.0" d="m927.80316 276.4882l-822.04724 -6.330719" fill-rule="nonzero"></path><path stroke="#85514a" stroke-width="4.0" stroke-linejoin="round" stroke-linecap="butt" d="m927.80316 276.4882l-822.04724 -6.330719" fill-rule="nonzero"></path><path fill="#000000" fill-opacity="0.0" d="m293.3937 224.35695l383.7795 0l0 34.5197l-383.7795 0z" fill-rule="nonzero"></path><path stroke="#609689" stroke-width="4.0" stroke-linejoin="round" stroke-linecap="butt" d="m293.3937 224.35695l383.7795 0l0 34.5197l-383.7795 0z" fill-rule="nonzero"></path><path fill="#000000" d="m326.95535 238.8732l0 9.84375l-0.96875 0l0 -9.84375l-4.875 0l0 -0.890625l10.734375 0l0 0.890625l-4.890625 0zm17.59375 9.84375l0 -5.203125l-9.625 0l0 5.203125l-0.96875 0l0 -10.734375l0.96875 0l0 4.625l9.625 0l0 -4.625l0.96875 0l0 10.734375l-0.96875 0zm15.40625 -0.5625q-0.65625 0.203125 -1.21875 0.34375q-0.5625 0.140625 -1.109375 0.234375q-0.546875 0.09375 -1.109375 0.140625q-0.5625 0.046875 -1.25 0.046875q-1.578125 0 -2.859375 -0.390625q-1.265625 -0.390625 -2.15625 -1.09375q-0.890625 -0.71875 -1.375 -1.734375q-0.484375 -1.015625 -0.484375 -2.28125q0 -1.234375 0.453125 -2.25q0.46875 -1.03125 1.296875 -1.765625q0.84375 -0.734375 2.0 -1.140625q1.171875 -0.40625 2.578125 -0.40625q1.46875 0 2.609375 0.390625q1.140625 0.390625 1.921875 1.125q0.78125 0.71875 1.1875 1.765625q0.40625 1.03125 0.40625 2.328125l0 0.234375l-11.453125 0q0.09375 1.0 0.5 1.8125q0.421875 0.796875 1.171875 1.359375q0.765625 0.5625 1.875 0.875q1.125 0.296875 2.609375 0.296875q0.625 0 1.265625 -0.078125q0.65625 -0.09375 1.25 -0.234375q0.59375 -0.15625 1.078125 -0.328125q0.5 -0.1875 0.8125 -0.390625l0 1.140625zm-0.078125 -5.296875q-0.046875 -0.828125 -0.359375 -1.5625q-0.3125 -0.75 -0.9375 -1.3125q-0.625 -0.578125 -1.578125 -0.90625q-0.953125 -0.34375 -2.296875 -0.34375q-1.25 0 -2.203125 0.34375q-0.9375 0.328125 -1.59375 0.890625q-0.65625 0.5625 -1.03125 1.3125q-0.375 0.75 -0.484375 1.578125l10.484375 0zm11.78125 -4.046875q-0.234375 -0.078125 -0.640625 -0.15625q-0.390625 -0.078125 -1.03125 -0.078125q-0.875 0 -1.640625 0.21875q-0.765625 0.203125 -1.4375 0.578125q-0.65625 0.359375 -1.21875 0.859375q-0.5625 0.484375 -1.015625 1.03125l0 7.453125l-0.96875 0l0 -10.734375l0.96875 0l0 2.1875q0.53125 -0.546875 1.140625 -1.0q0.609375 -0.453125 1.28125 -0.765625q0.6875 -0.328125 1.4375 -0.515625q0.75 -0.1875 1.546875 -0.1875q0.265625 0 0.484375 0.015625q0.21875 0.015625 0.40625 0.03125q0.1875 0.015625 0.34375 0.046875q0.171875 0.015625 0.34375 0.046875l0 0.96875l0 0zm2.7734375 -0.828125l0 1.640625q0.34375 -0.296875 0.765625 -0.625q0.421875 -0.34375 0.921875 -0.625q0.515625 -0.28125 1.109375 -0.46875q0.59375 -0.1875 1.28125 -0.1875q1.078125 0 1.90625 0.5q0.84375 0.484375 1.359375 1.5q0.5 -0.453125 1.03125 -0.828125q0.53125 -0.375 1.09375 -0.625q0.5625 -0.265625 1.15625 -0.40625q0.59375 -0.140625 1.21875 -0.140625q0.8125 0 1.46875 0.28125q0.65625 0.265625 1.109375 0.75q0.46875 0.46875 0.71875 1.125q0.265625 0.640625 0.265625 1.375l0 7.46875l-0.984375 0l0 -7.21875q0 -0.671875 -0.15625 -1.203125q-0.15625 -0.53125 -0.5 -0.890625q-0.34375 -0.375 -0.875 -0.5625q-0.515625 -0.1875 -1.25 -0.1875q-0.59375 0 -1.171875 0.171875q-0.5625 0.15625 -1.09375 0.4375q-0.515625 0.28125 -0.96875 0.640625q-0.453125 0.34375 -0.796875 0.71875q0.03125 0.21875 0.03125 0.375q0.015625 0.15625 0.015625 0.375l0 7.34375l-0.984375 0l0 -7.21875q0 -0.796875 -0.21875 -1.34375q-0.203125 -0.546875 -0.578125 -0.875q-0.375 -0.34375 -0.890625 -0.484375q-0.5 -0.140625 -1.109375 -0.140625q-0.5625 0 -1.125 0.203125q-0.5625 0.1875 -1.078125 0.5q-0.5 0.3125 -0.9375 0.703125q-0.421875 0.375 -0.734375 0.765625l0 7.890625l-0.96875 0l0 -10.734375l0.96875 0zm31.84375 5.375q0 1.4375 -0.53125 2.5q-0.515625 1.046875 -1.4375 1.734375q-0.90625 0.671875 -2.15625 1.015625q-1.234375 0.328125 -2.671875 0.328125q-1.4375 0 -2.6875 -0.328125q-1.25 -0.34375 -2.171875 -1.015625q-0.921875 -0.6875 -1.453125 -1.734375q-0.515625 -1.0625 -0.515625 -2.5q0 -0.96875 0.234375 -1.75q0.25 -0.78125 0.6875 -1.40625q0.4375 -0.625 1.046875 -1.078125q0.625 -0.453125 1.390625 -0.75q0.765625 -0.296875 1.640625 -0.4375q0.875 -0.15625 1.828125 -0.15625q1.4375 0 2.671875 0.328125q1.25 0.328125 2.15625 1.015625q0.921875 0.6875 1.4375 1.734375q0.53125 1.046875 0.53125 2.5zm-1.0 0q0 -1.140625 -0.375 -2.015625q-0.375 -0.875 -1.109375 -1.46875q-0.71875 -0.609375 -1.796875 -0.90625q-1.078125 -0.3125 -2.515625 -0.3125q-1.421875 0 -2.515625 0.3125q-1.09375 0.3125 -1.828125 0.90625q-0.734375 0.59375 -1.109375 1.484375q-0.375 0.875 -0.375 2.0q0 1.140625 0.375 2.015625q0.375 0.875 1.109375 1.46875q0.734375 0.59375 1.828125 0.90625q1.09375 0.3125 2.515625 0.3125q1.4375 0 2.515625 -0.3125q1.078125 -0.3125 1.796875 -0.90625q0.734375 -0.59375 1.109375 -1.46875q0.375 -0.875 0.375 -2.015625zm15.5859375 -0.015625q0 1.03125 -0.21875 1.828125q-0.21875 0.796875 -0.609375 1.390625q-0.390625 0.59375 -0.953125 1.015625q-0.546875 0.40625 -1.234375 0.65625q-0.6875 0.25 -1.484375 0.375q-0.796875 0.109375 -1.6875 0.109375l-5.53125 0l0 -10.734375l5.515625 0q1.328125 0 2.453125 0.265625q1.140625 0.25 1.96875 0.875q0.828125 0.609375 1.296875 1.640625q0.484375 1.03125 0.484375 2.578125zm-1.015625 0q0 -0.875 -0.171875 -1.546875q-0.171875 -0.671875 -0.5 -1.171875q-0.3125 -0.5 -0.78125 -0.828125q-0.453125 -0.34375 -1.03125 -0.546875q-0.578125 -0.203125 -1.265625 -0.28125q-0.671875 -0.09375 -1.4375 -0.09375l-4.546875 0l0 8.9375l4.546875 0q1.15625 0 2.109375 -0.203125q0.953125 -0.203125 1.625 -0.71875q0.6875 -0.515625 1.0625 -1.375q0.390625 -0.859375 0.390625 -2.171875zm14.8125 1.453125q0 1.046875 -0.5 1.828125q-0.484375 0.765625 -1.34375 1.28125q-0.859375 0.5 -2.046875 0.75q-1.171875 0.25 -2.53125 0.25q-1.484375 0 -2.734375 -0.1875q-1.234375 -0.203125 -2.171875 -0.546875l0 -1.140625q0.5 0.21875 1.03125 0.40625q0.53125 0.171875 1.125 0.3125q0.609375 0.125 1.296875 0.203125q0.6875 0.078125 1.484375 0.078125q1.125 0 2.109375 -0.21875q0.984375 -0.21875 1.703125 -0.625q0.734375 -0.40625 1.15625 -1.0q0.4375 -0.609375 0.4375 -1.390625l0 -2.03125q-0.375 0.5 -0.921875 0.96875q-0.546875 0.46875 -1.21875 0.828125q-0.65625 0.34375 -1.4375 0.5625q-0.78125 0.21875 -1.65625 0.21875q-0.984375 0 -1.75 -0.1875q-0.75 -0.1875 -1.328125 -0.5q-0.5625 -0.328125 -0.953125 -0.765625q-0.390625 -0.4375 -0.625 -0.953125q-0.234375 -0.53125 -0.34375 -1.09375q-0.109375 -0.578125 -0.109375 -1.15625l0 -2.703125l1.0 0l0 2.484375q0 0.90625 0.203125 1.640625q0.21875 0.734375 0.703125 1.265625q0.5 0.515625 1.296875 0.796875q0.8125 0.28125 1.984375 0.28125q0.921875 0 1.6875 -0.234375q0.765625 -0.25 1.390625 -0.671875q0.640625 -0.421875 1.15625 -0.96875q0.515625 -0.546875 0.921875 -1.140625l0 -3.453125l0.984375 0l0 6.8125zm14.015625 3.921875l0 -7.09375q0 -0.890625 -0.25 -1.453125q-0.234375 -0.578125 -0.671875 -0.90625q-0.4375 -0.34375 -1.078125 -0.46875q-0.625 -0.140625 -1.421875 -0.140625q-0.90625 0 -1.796875 0.21875q-0.875 0.21875 -1.65625 0.5625q-0.78125 0.34375 -1.4375 0.765625q-0.65625 0.40625 -1.109375 0.78125l0 7.734375l-0.96875 0l0 -10.734375l0.96875 0l0 1.875q0.546875 -0.34375 1.203125 -0.71875q0.671875 -0.375 1.421875 -0.6875q0.765625 -0.328125 1.625 -0.53125q0.875 -0.203125 1.84375 -0.203125q1.078125 0 1.890625 0.265625q0.8125 0.265625 1.34375 0.75q0.53125 0.46875 0.796875 1.15625q0.265625 0.6875 0.265625 1.53125l0 7.296875l-0.96875 0zm14.2578125 0l0 -1.1875q-0.5625 0.296875 -1.28125 0.5625q-0.71875 0.25 -1.515625 0.453125q-0.78125 0.1875 -1.625 0.28125q-0.828125 0.109375 -1.640625 0.109375q-1.046875 0 -1.875 -0.203125q-0.828125 -0.1875 -1.40625 -0.546875q-0.578125 -0.375 -0.890625 -0.921875q-0.3125 -0.5625 -0.3125 -1.28125q0 -0.71875 0.359375 -1.265625q0.359375 -0.5625 1.03125 -0.96875q0.671875 -0.40625 1.625 -0.6875q0.953125 -0.296875 2.125 -0.484375q1.171875 -0.203125 2.53125 -0.328125q1.359375 -0.140625 2.875 -0.21875l0 -0.828125q0 -0.5 -0.1875 -0.875q-0.1875 -0.390625 -0.53125 -0.671875q-0.328125 -0.28125 -0.78125 -0.46875q-0.453125 -0.203125 -0.984375 -0.3125q-0.53125 -0.125 -1.109375 -0.171875q-0.578125 -0.046875 -1.171875 -0.046875q-0.78125 0 -1.4375 0.078125q-0.640625 0.078125 -1.203125 0.21875q-0.5625 0.125 -1.078125 0.3125q-0.515625 0.171875 -1.046875 0.375l0 -1.140625q1.09375 -0.28125 2.3125 -0.5q1.234375 -0.21875 2.625 -0.21875q1.171875 0 2.1875 0.203125q1.015625 0.203125 1.765625 0.640625q0.75 0.4375 1.171875 1.125q0.4375 0.6875 0.4375 1.6875l0 7.28125l-0.96875 0zm0 -5.828125q-2.5625 0.140625 -4.375 0.40625q-1.796875 0.25 -2.953125 0.625q-1.140625 0.375 -1.6875 0.875q-0.53125 0.5 -0.53125 1.140625q0 0.515625 0.265625 0.921875q0.265625 0.390625 0.75 0.65625q0.5 0.265625 1.203125 0.40625q0.703125 0.140625 1.578125 0.140625q0.515625 0 1.0625 -0.0625q0.546875 -0.0625 1.09375 -0.15625q0.546875 -0.109375 1.078125 -0.25q0.53125 -0.15625 1.0 -0.328125q0.46875 -0.171875 0.859375 -0.359375q0.390625 -0.203125 0.65625 -0.40625l0 -3.609375zm5.4609375 -4.90625l0 1.640625q0.34375 -0.296875 0.765625 -0.625q0.421875 -0.34375 0.921875 -0.625q0.515625 -0.28125 1.109375 -0.46875q0.59375 -0.1875 1.28125 -0.1875q1.078125 0 1.90625 0.5q0.84375 0.484375 1.359375 1.5q0.5 -0.453125 1.03125 -0.828125q0.53125 -0.375 1.09375 -0.625q0.5625 -0.265625 1.15625 -0.40625q0.59375 -0.140625 1.21875 -0.140625q0.8125 0 1.46875 0.28125q0.65625 0.265625 1.109375 0.75q0.46875 0.46875 0.71875 1.125q0.265625 0.640625 0.265625 1.375l0 7.46875l-0.984375 0l0 -7.21875q0 -0.671875 -0.15625 -1.203125q-0.15625 -0.53125 -0.5 -0.890625q-0.34375 -0.375 -0.875 -0.5625q-0.515625 -0.1875 -1.25 -0.1875q-0.59375 0 -1.171875 0.171875q-0.5625 0.15625 -1.09375 0.4375q-0.515625 0.28125 -0.96875 0.640625q-0.453125 0.34375 -0.796875 0.71875q0.03125 0.21875 0.03125 0.375q0.015625 0.15625 0.015625 0.375l0 7.34375l-0.984375 0l0 -7.21875q0 -0.796875 -0.21875 -1.34375q-0.203125 -0.546875 -0.578125 -0.875q-0.375 -0.34375 -0.890625 -0.484375q-0.5 -0.140625 -1.109375 -0.140625q-0.5625 0 -1.125 0.203125q-0.5625 0.1875 -1.078125 0.5q-0.5 0.3125 -0.9375 0.703125q-0.421875 0.375 -0.734375 0.765625l0 7.890625l-0.96875 0l0 -10.734375l0.96875 0zm18.96875 10.734375l0 -10.734375l0.96875 0l0 10.734375l-0.96875 0zm15.59375 -0.859375q-0.5625 0.234375 -1.109375 0.4375q-0.546875 0.1875 -1.140625 0.34375q-0.59375 0.140625 -1.25 0.21875q-0.65625 0.078125 -1.4375 0.078125q-0.953125 0 -1.828125 -0.171875q-0.875 -0.15625 -1.640625 -0.46875q-0.75 -0.3125 -1.375 -0.765625q-0.609375 -0.46875 -1.0625 -1.078125q-0.4375 -0.625 -0.671875 -1.390625q-0.234375 -0.78125 -0.234375 -1.703125q0 -0.921875 0.234375 -1.6875q0.234375 -0.78125 0.671875 -1.390625q0.453125 -0.625 1.0625 -1.09375q0.625 -0.46875 1.375 -0.78125q0.765625 -0.3125 1.640625 -0.46875q0.875 -0.15625 1.828125 -0.15625q0.78125 0 1.4375 0.078125q0.65625 0.078125 1.25 0.21875q0.59375 0.140625 1.140625 0.34375q0.546875 0.1875 1.109375 0.421875l0 1.171875q-0.4375 -0.28125 -0.953125 -0.53125q-0.5 -0.25 -1.09375 -0.4375q-0.59375 -0.1875 -1.265625 -0.296875q-0.671875 -0.109375 -1.4375 -0.109375q-1.546875 0 -2.6875 0.34375q-1.125 0.328125 -1.859375 0.9375q-0.734375 0.609375 -1.09375 1.484375q-0.359375 0.875 -0.359375 1.953125q0 1.078125 0.359375 1.953125q0.359375 0.859375 1.09375 1.46875q0.734375 0.609375 1.859375 0.953125q1.140625 0.328125 2.6875 0.328125q0.765625 0 1.453125 -0.109375q0.6875 -0.109375 1.28125 -0.296875q0.59375 -0.1875 1.09375 -0.4375q0.515625 -0.25 0.921875 -0.515625l0 1.15625l0 0zm11.5780945 -8.296875q-0.3125 -0.140625 -0.71875 -0.3125q-0.390625 -0.171875 -0.90625 -0.296875q-0.5 -0.140625 -1.1405945 -0.21875q-0.640625 -0.09375 -1.421875 -0.09375q-0.953125 0 -1.6875 0.109375q-0.734375 0.109375 -1.25 0.34375q-0.515625 0.21875 -0.78125 0.578125q-0.265625 0.34375 -0.265625 0.828125q0 0.40625 0.25 0.71875q0.25 0.296875 0.6875 0.53125q0.4375 0.234375 1.015625 0.4375q0.578125 0.1875 1.234375 0.359375q0.65625 0.15625 1.34375 0.328125q0.6875 0.171875 1.3437195 0.375q0.65625 0.203125 1.234375 0.453125q0.578125 0.234375 1.015625 0.5625q0.4375 0.328125 0.6875 0.75q0.25 0.421875 0.25 0.984375q0 0.59375 -0.234375 1.046875q-0.21875 0.453125 -0.609375 0.78125q-0.375 0.3125 -0.90625 0.53125q-0.515625 0.21875 -1.109375 0.34375q-0.5780945 0.125 -1.2187195 0.171875q-0.625 0.0625 -1.234375 0.0625q-1.390625 0 -2.53125 -0.21875q-1.140625 -0.203125 -2.171875 -0.546875l0 -1.203125q1.0625 0.640625 2.25 0.875q1.1875 0.234375 2.484375 0.234375q0.921875 0 1.703125 -0.109375q0.7812195 -0.109375 1.3437195 -0.34375q0.578125 -0.25 0.890625 -0.625q0.328125 -0.390625 0.328125 -0.9375q0 -0.453125 -0.265625 -0.78125q-0.25 -0.34375 -0.6875 -0.59375q-0.421875 -0.25 -1.015625 -0.4375q-0.5780945 -0.203125 -1.2343445 -0.375q-0.640625 -0.171875 -1.328125 -0.328125q-0.6875 -0.15625 -1.34375 -0.34375q-0.640625 -0.1875 -1.234375 -0.421875q-0.578125 -0.234375 -1.015625 -0.546875q-0.421875 -0.328125 -0.6875 -0.734375q-0.25 -0.421875 -0.25 -0.96875q0 -0.53125 0.203125 -0.953125q0.203125 -0.421875 0.5625 -0.71875q0.359375 -0.3125 0.828125 -0.515625q0.484375 -0.203125 1.015625 -0.328125q0.546875 -0.125 1.125 -0.171875q0.59375 -0.0625 1.171875 -0.0625q0.625 0 1.171875 0.0625q0.5625 0.046875 1.0780945 0.140625q0.53125 0.09375 1.015625 0.21875q0.5 0.109375 1.015625 0.234375l0 1.125zm19.65625 9.15625l0 -1.1875q-0.5625 0.296875 -1.28125 0.5625q-0.71875 0.25 -1.515625 0.453125q-0.78125 0.1875 -1.625 0.28125q-0.828125 0.109375 -1.640625 0.109375q-1.046875 0 -1.875 -0.203125q-0.828125 -0.1875 -1.40625 -0.546875q-0.578125 -0.375 -0.890625 -0.921875q-0.3125 -0.5625 -0.3125 -1.28125q0 -0.71875 0.359375 -1.265625q0.359375 -0.5625 1.03125 -0.96875q0.671875 -0.40625 1.625 -0.6875q0.953125 -0.296875 2.125 -0.484375q1.171875 -0.203125 2.53125 -0.328125q1.359375 -0.140625 2.875 -0.21875l0 -0.828125q0 -0.5 -0.1875 -0.875q-0.1875 -0.390625 -0.53125 -0.671875q-0.328125 -0.28125 -0.78125 -0.46875q-0.453125 -0.203125 -0.984375 -0.3125q-0.53125 -0.125 -1.109375 -0.171875q-0.578125 -0.046875 -1.171875 -0.046875q-0.78125 0 -1.4375 0.078125q-0.640625 0.078125 -1.203125 0.21875q-0.5625 0.125 -1.078125 0.3125q-0.515625 0.171875 -1.046875 0.375l0 -1.140625q1.09375 -0.28125 2.3125 -0.5q1.234375 -0.21875 2.625 -0.21875q1.171875 0 2.1875 0.203125q1.015625 0.203125 1.765625 0.640625q0.75 0.4375 1.171875 1.125q0.4375 0.6875 0.4375 1.6875l0 7.28125l-0.96875 0zm0 -5.828125q-2.5625 0.140625 -4.375 0.40625q-1.796875 0.25 -2.953125 0.625q-1.140625 0.375 -1.6875 0.875q-0.53125 0.5 -0.53125 1.140625q0 0.515625 0.265625 0.921875q0.265625 0.390625 0.75 0.65625q0.5 0.265625 1.203125 0.40625q0.703125 0.140625 1.578125 0.140625q0.515625 0 1.0625 -0.0625q0.546875 -0.0625 1.09375 -0.15625q0.546875 -0.109375 1.078125 -0.25q0.53125 -0.15625 1.0 -0.328125q0.46875 -0.171875 0.859375 -0.359375q0.390625 -0.203125 0.65625 -0.40625l0 -3.609375zm14.8828125 5.828125l0 -7.09375q0 -0.890625 -0.25 -1.453125q-0.234375 -0.578125 -0.671875 -0.90625q-0.4375 -0.34375 -1.078125 -0.46875q-0.625 -0.140625 -1.421875 -0.140625q-0.90625 0 -1.796875 0.21875q-0.875 0.21875 -1.65625 0.5625q-0.78125 0.34375 -1.4375 0.765625q-0.65625 0.40625 -1.109375 0.78125l0 7.734375l-0.96875 0l0 -10.734375l0.96875 0l0 1.875q0.546875 -0.34375 1.203125 -0.71875q0.671875 -0.375 1.421875 -0.6875q0.765625 -0.328125 1.625 -0.53125q0.875 -0.203125 1.84375 -0.203125q1.078125 0 1.890625 0.265625q0.8125 0.265625 1.34375 0.75q0.53125 0.46875 0.796875 1.15625q0.265625 0.6875 0.265625 1.53125l0 7.296875l-0.96875 0zm16.257812 -5.375q0 1.03125 -0.21875 1.828125q-0.21875 0.796875 -0.609375 1.390625q-0.390625 0.59375 -0.953125 1.015625q-0.546875 0.40625 -1.234375 0.65625q-0.6875 0.25 -1.484375 0.375q-0.796875 0.109375 -1.6875 0.109375l-5.53125 0l0 -10.734375l5.515625 0q1.328125 0 2.453125 0.265625q1.140625 0.25 1.96875 0.875q0.828125 0.609375 1.296875 1.640625q0.484375 1.03125 0.484375 2.578125zm-1.015625 0q0 -0.875 -0.171875 -1.546875q-0.171875 -0.671875 -0.5 -1.171875q-0.3125 -0.5 -0.78125 -0.828125q-0.453125 -0.34375 -1.03125 -0.546875q-0.578125 -0.203125 -1.265625 -0.28125q-0.671875 -0.09375 -1.4375 -0.09375l-4.546875 0l0 8.9375l4.546875 0q1.15625 0 2.109375 -0.203125q0.953125 -0.203125 1.625 -0.71875q0.6875 -0.515625 1.0625 -1.375q0.390625 -0.859375 0.390625 -2.171875zm10.859375 -0.3125l7.984375 -5.046875l1.359375 0l-7.859375 5.140625l8.34375 5.59375l-1.65625 0l-8.171875 -5.46875l0 5.46875l-0.984375 0l0 -10.734375l0.984375 0l0 5.046875zm11.9140625 5.6875l0 -10.734375l0.96875 0l0 10.734375l-0.96875 0zm14.984375 0l0 -7.09375q0 -0.890625 -0.25 -1.453125q-0.234375 -0.578125 -0.671875 -0.90625q-0.4375 -0.34375 -1.078125 -0.46875q-0.625 -0.140625 -1.421875 -0.140625q-0.90625 0 -1.796875 0.21875q-0.875 0.21875 -1.65625 0.5625q-0.78125 0.34375 -1.4375 0.765625q-0.65625 0.40625 -1.109375 0.78125l0 7.734375l-0.96875 0l0 -10.734375l0.96875 0l0 1.875q0.546875 -0.34375 1.203125 -0.71875q0.671875 -0.375 1.421875 -0.6875q0.765625 -0.328125 1.625 -0.53125q0.875 -0.203125 1.84375 -0.203125q1.078125 0 1.890625 0.265625q0.8125 0.265625 1.34375 0.75q0.53125 0.46875 0.796875 1.15625q0.265625 0.6875 0.265625 1.53125l0 7.296875l-0.96875 0zm15.3515625 -0.5625q-0.65625 0.203125 -1.21875 0.34375q-0.5625 0.140625 -1.109375 0.234375q-0.546875 0.09375 -1.109375 0.140625q-0.5625 0.046875 -1.25 0.046875q-1.578125 0 -2.859375 -0.390625q-1.265625 -0.390625 -2.15625 -1.09375q-0.890625 -0.71875 -1.375 -1.734375q-0.484375 -1.015625 -0.484375 -2.28125q0 -1.234375 0.453125 -2.25q0.46875 -1.03125 1.296875 -1.765625q0.84375 -0.734375 2.0 -1.140625q1.171875 -0.40625 2.578125 -0.40625q1.46875 0 2.609375 0.390625q1.140625 0.390625 1.921875 1.125q0.78125 0.71875 1.1875 1.765625q0.40625 1.03125 0.40625 2.328125l0 0.234375l-11.453125 0q0.09375 1.0 0.5 1.8125q0.421875 0.796875 1.171875 1.359375q0.765625 0.5625 1.875 0.875q1.125 0.296875 2.609375 0.296875q0.625 0 1.265625 -0.078125q0.65625 -0.09375 1.25 -0.234375q0.59375 -0.15625 1.078125 -0.328125q0.5 -0.1875 0.8125 -0.390625l0 1.140625zm-0.078125 -5.296875q-0.046875 -0.828125 -0.359375 -1.5625q-0.3125 -0.75 -0.9375 -1.3125q-0.625 -0.578125 -1.578125 -0.90625q-0.953125 -0.34375 -2.296875 -0.34375q-1.25 0 -2.203125 0.34375q-0.9375 0.328125 -1.59375 0.890625q-0.65625 0.5625 -1.03125 1.3125q-0.375 0.75 -0.484375 1.578125l10.484375 0zm8.171875 -3.984375l0 9.84375l-0.96875 0l0 -9.84375l-4.875 0l0 -0.890625l10.734375 0l0 0.890625l-4.890625 0zm7.0 9.84375l0 -10.734375l0.96875 0l0 10.734375l-0.96875 0zm15.59375 -0.859375q-0.5625 0.234375 -1.109375 0.4375q-0.546875 0.1875 -1.140625 0.34375q-0.59375 0.140625 -1.25 0.21875q-0.65625 0.078125 -1.4375 0.078125q-0.953125 0 -1.828125 -0.171875q-0.875 -0.15625 -1.640625 -0.46875q-0.75 -0.3125 -1.375 -0.765625q-0.609375 -0.46875 -1.0625 -1.078125q-0.4375 -0.625 -0.671875 -1.390625q-0.234375 -0.78125 -0.234375 -1.703125q0 -0.921875 0.234375 -1.6875q0.234375 -0.78125 0.671875 -1.390625q0.453125 -0.625 1.0625 -1.09375q0.625 -0.46875 1.375 -0.78125q0.765625 -0.3125 1.640625 -0.46875q0.875 -0.15625 1.828125 -0.15625q0.78125 0 1.4375 0.078125q0.65625 0.078125 1.25 0.21875q0.59375 0.140625 1.140625 0.34375q0.546875 0.1875 1.109375 0.421875l0 1.171875q-0.4375 -0.28125 -0.953125 -0.53125q-0.5 -0.25 -1.09375 -0.4375q-0.59375 -0.1875 -1.265625 -0.296875q-0.671875 -0.109375 -1.4375 -0.109375q-1.546875 0 -2.6875 0.34375q-1.125 0.328125 -1.859375 0.9375q-0.734375 0.609375 -1.09375 1.484375q-0.359375 0.875 -0.359375 1.953125q0 1.078125 0.359375 1.953125q0.359375 0.859375 1.09375 1.46875q0.734375 0.609375 1.859375 0.953125q1.140625 0.328125 2.6875 0.328125q0.765625 0 1.453125 -0.109375q0.6875 -0.109375 1.28125 -0.296875q0.59375 -0.1875 1.09375 -0.4375q0.515625 -0.25 0.921875 -0.515625l0 1.15625l0 0zm11.578125 -8.296875q-0.3125 -0.140625 -0.71875 -0.3125q-0.390625 -0.171875 -0.90625 -0.296875q-0.5 -0.140625 -1.140625 -0.21875q-0.640625 -0.09375 -1.421875 -0.09375q-0.953125 0 -1.6875 0.109375q-0.734375 0.109375 -1.25 0.34375q-0.515625 0.21875 -0.78125 0.578125q-0.265625 0.34375 -0.265625 0.828125q0 0.40625 0.25 0.71875q0.25 0.296875 0.6875 0.53125q0.4375 0.234375 1.015625 0.4375q0.578125 0.1875 1.234375 0.359375q0.65625 0.15625 1.34375 0.328125q0.6875 0.171875 1.34375 0.375q0.65625 0.203125 1.234375 0.453125q0.578125 0.234375 1.015625 0.5625q0.4375 0.328125 0.6875 0.75q0.25 0.421875 0.25 0.984375q0 0.59375 -0.234375 1.046875q-0.21875 0.453125 -0.609375 0.78125q-0.375 0.3125 -0.90625 0.53125q-0.515625 0.21875 -1.109375 0.34375q-0.578125 0.125 -1.21875 0.171875q-0.625 0.0625 -1.234375 0.0625q-1.390625 0 -2.53125 -0.21875q-1.140625 -0.203125 -2.171875 -0.546875l0 -1.203125q1.0625 0.640625 2.25 0.875q1.1875 0.234375 2.484375 0.234375q0.921875 0 1.703125 -0.109375q0.78125 -0.109375 1.34375 -0.34375q0.578125 -0.25 0.890625 -0.625q0.328125 -0.390625 0.328125 -0.9375q0 -0.453125 -0.265625 -0.78125q-0.25 -0.34375 -0.6875 -0.59375q-0.421875 -0.25 -1.015625 -0.4375q-0.578125 -0.203125 -1.234375 -0.375q-0.640625 -0.171875 -1.328125 -0.328125q-0.6875 -0.15625 -1.34375 -0.34375q-0.640625 -0.1875 -1.234375 -0.421875q-0.578125 -0.234375 -1.015625 -0.546875q-0.421875 -0.328125 -0.6875 -0.734375q-0.25 -0.421875 -0.25 -0.96875q0 -0.53125 0.203125 -0.953125q0.203125 -0.421875 0.5625 -0.71875q0.359375 -0.3125 0.828125 -0.515625q0.484375 -0.203125 1.015625 -0.328125q0.546875 -0.125 1.125 -0.171875q0.59375 -0.0625 1.171875 -0.0625q0.625 0 1.171875 0.0625q0.5625 0.046875 1.078125 0.140625q0.53125 0.09375 1.015625 0.21875q0.5 0.109375 1.015625 0.234375l0 1.125z" fill-rule="nonzero"></path><path fill="#000000" fill-opacity="0.0" d="m341.29922 287.76904l335.874 0l0 34.519684l-335.874 0z" fill-rule="nonzero"></path><path stroke="#f65809" stroke-width="4.0" stroke-linejoin="round" stroke-linecap="butt" d="m341.29922 287.76904l335.874 0l0 34.519684l-335.874 0z" fill-rule="nonzero"></path><path fill="#000000" d="m385.32217 306.76965q0 1.4375 -0.53125 2.5q-0.515625 1.046875 -1.4375 1.734375q-0.90625 0.671875 -2.15625 1.015625q-1.234375 0.328125 -2.671875 0.328125q-1.4375 0 -2.6875 -0.328125q-1.25 -0.34375 -2.171875 -1.015625q-0.921875 -0.6875 -1.453125 -1.734375q-0.515625 -1.0625 -0.515625 -2.5q0 -0.96875 0.234375 -1.75q0.25 -0.78125 0.6875 -1.40625q0.4375 -0.625 1.046875 -1.078125q0.625 -0.453125 1.390625 -0.75q0.765625 -0.296875 1.640625 -0.4375q0.875 -0.15625 1.828125 -0.15625q1.4375 0 2.671875 0.328125q1.25 0.328125 2.15625 1.015625q0.921875 0.6875 1.4375 1.734375q0.53125 1.046875 0.53125 2.5zm-1.0 0q0 -1.140625 -0.375 -2.015625q-0.375 -0.875 -1.109375 -1.46875q-0.71875 -0.609375 -1.796875 -0.90625q-1.078125 -0.3125 -2.515625 -0.3125q-1.421875 0 -2.515625 0.3125q-1.09375 0.3125 -1.828125 0.90625q-0.734375 0.59375 -1.109375 1.484375q-0.375 0.875 -0.375 2.0q0 1.140625 0.375 2.015625q0.375 0.875 1.109375 1.46875q0.734375 0.59375 1.828125 0.90625q1.09375 0.3125 2.515625 0.3125q1.4375 0 2.515625 -0.3125q1.078125 -0.3125 1.796875 -0.90625q0.734375 -0.59375 1.109375 -1.46875q0.375 -0.875 0.375 -2.015625zm9.3515625 -4.46875q-1.171875 0 -2.03125 0.171875q-0.84375 0.15625 -1.40625 0.5q-0.546875 0.328125 -0.8125 0.859375q-0.265625 0.515625 -0.265625 1.234375l0 1.203125l9.171875 0l0 0.90625l-9.171875 0l0 4.953125l-0.96875 0l0 -7.21875q0 -0.828125 0.28125 -1.484375q0.296875 -0.65625 0.9375 -1.109375q0.640625 -0.453125 1.640625 -0.6875q1.015625 -0.234375 2.4375 -0.234375l5.0 0l0 0.90625l-4.8125 0zm27.257812 9.828125l0 -9.140625l-5.890625 9.140625l-0.875 0l-5.90625 -9.171875l0 9.171875l-0.96875 0l0 -10.734375l1.046875 0l6.296875 9.71875l6.21875 -9.71875l1.046875 0l0 10.734375l-0.96875 0zm17.460938 -5.359375q0 1.4375 -0.53125 2.5q-0.515625 1.046875 -1.4375 1.734375q-0.90625 0.671875 -2.15625 1.015625q-1.234375 0.328125 -2.671875 0.328125q-1.4375 0 -2.6875 -0.328125q-1.25 -0.34375 -2.171875 -1.015625q-0.921875 -0.6875 -1.453125 -1.734375q-0.515625 -1.0625 -0.515625 -2.5q0 -0.96875 0.234375 -1.75q0.25 -0.78125 0.6875 -1.40625q0.4375 -0.625 1.046875 -1.078125q0.625 -0.453125 1.390625 -0.75q0.765625 -0.296875 1.640625 -0.4375q0.875 -0.15625 1.828125 -0.15625q1.4375 0 2.671875 0.328125q1.25 0.328125 2.15625 1.015625q0.921875 0.6875 1.4375 1.734375q0.53125 1.046875 0.53125 2.5zm-1.0 0q0 -1.140625 -0.375 -2.015625q-0.375 -0.875 -1.109375 -1.46875q-0.71875 -0.609375 -1.796875 -0.90625q-1.078125 -0.3125 -2.515625 -0.3125q-1.421875 0 -2.515625 0.3125q-1.09375 0.3125 -1.828125 0.90625q-0.734375 0.59375 -1.109375 1.484375q-0.375 0.875 -0.375 2.0q0 1.140625 0.375 2.015625q0.375 0.875 1.109375 1.46875q0.734375 0.59375 1.828125 0.90625q1.09375 0.3125 2.515625 0.3125q1.4375 0 2.515625 -0.3125q1.078125 -0.3125 1.796875 -0.90625q0.734375 -0.59375 1.109375 -1.46875q0.375 -0.875 0.375 -2.015625zm4.8359375 1.640625q0 0.734375 0.109375 1.265625q0.125 0.515625 0.5 0.859375q0.375 0.328125 1.078125 0.484375q0.71875 0.15625 1.890625 0.15625l4.84375 0l0 0.953125l-5.046875 0q-1.28125 0 -2.125 -0.203125q-0.84375 -0.21875 -1.34375 -0.640625q-0.484375 -0.4375 -0.6875 -1.09375q-0.1875 -0.671875 -0.1875 -1.59375l0 -7.203125l0.96875 0l0 7.015625zm21.203125 3.15625q-0.65625 0.203125 -1.21875 0.34375q-0.5625 0.140625 -1.109375 0.234375q-0.546875 0.09375 -1.109375 0.140625q-0.5625 0.046875 -1.25 0.046875q-1.578125 0 -2.859375 -0.390625q-1.265625 -0.390625 -2.15625 -1.09375q-0.890625 -0.71875 -1.375 -1.734375q-0.484375 -1.015625 -0.484375 -2.28125q0 -1.234375 0.453125 -2.25q0.46875 -1.03125 1.296875 -1.765625q0.84375 -0.734375 2.0 -1.140625q1.171875 -0.40625 2.578125 -0.40625q1.46875 0 2.609375 0.390625q1.140625 0.390625 1.921875 1.125q0.78125 0.71875 1.1875 1.765625q0.40625 1.03125 0.40625 2.328125l0 0.234375l-11.453125 0q0.09375 1.0 0.5 1.8125q0.421875 0.796875 1.171875 1.359375q0.765625 0.5625 1.875 0.875q1.125 0.296875 2.609375 0.296875q0.625 0 1.265625 -0.078125q0.65625 -0.09375 1.25 -0.234375q0.59375 -0.15625 1.078125 -0.328125q0.5 -0.1875 0.8125 -0.390625l0 1.140625zm-0.078125 -5.296875q-0.046875 -0.828125 -0.359375 -1.5625q-0.3125 -0.75 -0.9375 -1.3125q-0.625 -0.578125 -1.578125 -0.90625q-0.953125 -0.34375 -2.296875 -0.34375q-1.25 0 -2.203125 0.34375q-0.9375 0.328125 -1.59375 0.890625q-0.65625 0.5625 -1.03125 1.3125q-0.375 0.75 -0.484375 1.578125l10.484375 0zm14.828125 5.0q-0.5625 0.234375 -1.109375 0.4375q-0.546875 0.1875 -1.140625 0.34375q-0.59375 0.140625 -1.25 0.21875q-0.65625 0.078125 -1.4375 0.078125q-0.953125 0 -1.828125 -0.171875q-0.875 -0.15625 -1.640625 -0.46875q-0.75 -0.3125 -1.375 -0.765625q-0.609375 -0.46875 -1.0625 -1.078125q-0.4375 -0.625 -0.671875 -1.390625q-0.234375 -0.78125 -0.234375 -1.703125q0 -0.921875 0.234375 -1.6875q0.234375 -0.78125 0.671875 -1.390625q0.453125 -0.625 1.0625 -1.09375q0.625 -0.46875 1.375 -0.78125q0.765625 -0.3125 1.640625 -0.46875q0.875 -0.15625 1.828125 -0.15625q0.78125 0 1.4375 0.078125q0.65625 0.078125 1.25 0.21875q0.59375 0.140625 1.140625 0.34375q0.546875 0.1875 1.109375 0.421875l0 1.171875q-0.4375 -0.28125 -0.953125 -0.53125q-0.5 -0.25 -1.09375 -0.4375q-0.59375 -0.1875 -1.265625 -0.296875q-0.671875 -0.109375 -1.4375 -0.109375q-1.546875 0 -2.6875 0.34375q-1.125 0.328125 -1.859375 0.9375q-0.734375 0.609375 -1.09375 1.484375q-0.359375 0.875 -0.359375 1.953125q0 1.078125 0.359375 1.953125q0.359375 0.859375 1.09375 1.46875q0.734375 0.609375 1.859375 0.953125q1.140625 0.328125 2.6875 0.328125q0.765625 0 1.453125 -0.109375q0.6875 -0.109375 1.28125 -0.296875q0.59375 -0.1875 1.09375 -0.4375q0.515625 -0.25 0.921875 -0.515625l0 1.15625l0 0zm3.84375 -9.875l0 7.078125q0 0.90625 0.234375 1.484375q0.234375 0.578125 0.671875 0.90625q0.4375 0.328125 1.0625 0.46875q0.640625 0.125 1.421875 0.125q0.921875 0 1.796875 -0.21875q0.875 -0.234375 1.640625 -0.5625q0.78125 -0.34375 1.421875 -0.75q0.640625 -0.421875 1.09375 -0.8125l0 -7.71875l1.0 0l0 10.734375l-1.0 0l0 -1.890625q-0.546875 0.34375 -1.203125 0.734375q-0.640625 0.375 -1.390625 0.6875q-0.75 0.3125 -1.609375 0.515625q-0.859375 0.21875 -1.828125 0.21875q-1.078125 0 -1.890625 -0.28125q-0.8125 -0.28125 -1.34375 -0.765625q-0.53125 -0.5 -0.796875 -1.171875q-0.265625 -0.671875 -0.265625 -1.484375l0 -7.296875l0.984375 0zm14.9296875 7.015625q0 0.734375 0.109375 1.265625q0.125 0.515625 0.5 0.859375q0.375 0.328125 1.078125 0.484375q0.71875 0.15625 1.890625 0.15625l4.84375 0l0 0.953125l-5.046875 0q-1.28125 0 -2.125 -0.203125q-0.84375 -0.21875 -1.34375 -0.640625q-0.484375 -0.4375 -0.6875 -1.09375q-0.1875 -0.671875 -0.1875 -1.59375l0 -7.203125l0.96875 0l0 7.015625zm21.203094 3.15625q-0.65625 0.203125 -1.21875 0.34375q-0.5625 0.140625 -1.109375 0.234375q-0.546875 0.09375 -1.109375 0.140625q-0.5625 0.046875 -1.25 0.046875q-1.5780945 0 -2.8593445 -0.390625q-1.265625 -0.390625 -2.15625 -1.09375q-0.890625 -0.71875 -1.375 -1.734375q-0.484375 -1.015625 -0.484375 -2.28125q0 -1.234375 0.453125 -2.25q0.46875 -1.03125 1.296875 -1.765625q0.84375 -0.734375 2.0 -1.140625q1.171875 -0.40625 2.5780945 -0.40625q1.46875 0 2.609375 0.390625q1.140625 0.390625 1.921875 1.125q0.78125 0.71875 1.1875 1.765625q0.40625 1.03125 0.40625 2.328125l0 0.234375l-11.4530945 0q0.09375 1.0 0.5 1.8125q0.421875 0.796875 1.171875 1.359375q0.765625 0.5625 1.875 0.875q1.1249695 0.296875 2.6093445 0.296875q0.625 0 1.265625 -0.078125q0.65625 -0.09375 1.25 -0.234375q0.59375 -0.15625 1.078125 -0.328125q0.5 -0.1875 0.8125 -0.390625l0 1.140625zm-0.078125 -5.296875q-0.046875 -0.828125 -0.359375 -1.5625q-0.3125 -0.75 -0.9375 -1.3125q-0.625 -0.578125 -1.578125 -0.90625q-0.953125 -0.34375 -2.296875 -0.34375q-1.2499695 0 -2.2030945 0.34375q-0.9375 0.328125 -1.59375 0.890625q-0.65625 0.5625 -1.03125 1.3125q-0.375 0.75 -0.484375 1.578125l10.4843445 0zm12.5 -3.296875q-0.3125 -0.140625 -0.71875 -0.3125q-0.390625 -0.171875 -0.90625 -0.296875q-0.5 -0.140625 -1.140625 -0.21875q-0.640625 -0.09375 -1.421875 -0.09375q-0.953125 0 -1.6875 0.109375q-0.734375 0.109375 -1.25 0.34375q-0.515625 0.21875 -0.78125 0.578125q-0.265625 0.34375 -0.265625 0.828125q0 0.40625 0.25 0.71875q0.25 0.296875 0.6875 0.53125q0.4375 0.234375 1.015625 0.4375q0.578125 0.1875 1.234375 0.359375q0.65625 0.15625 1.34375 0.328125q0.6875 0.171875 1.34375 0.375q0.65625 0.203125 1.234375 0.453125q0.578125 0.234375 1.015625 0.5625q0.4375 0.328125 0.6875 0.75q0.25 0.421875 0.25 0.984375q0 0.59375 -0.234375 1.046875q-0.21875 0.453125 -0.609375 0.78125q-0.375 0.3125 -0.90625 0.53125q-0.515625 0.21875 -1.109375 0.34375q-0.578125 0.125 -1.21875 0.171875q-0.625 0.0625 -1.234375 0.0625q-1.390625 0 -2.53125 -0.21875q-1.140625 -0.203125 -2.171875 -0.546875l0 -1.203125q1.0625 0.640625 2.25 0.875q1.1875 0.234375 2.484375 0.234375q0.921875 0 1.703125 -0.109375q0.78125 -0.109375 1.34375 -0.34375q0.578125 -0.25 0.890625 -0.625q0.328125 -0.390625 0.328125 -0.9375q0 -0.453125 -0.265625 -0.78125q-0.25 -0.34375 -0.6875 -0.59375q-0.421875 -0.25 -1.015625 -0.4375q-0.578125 -0.203125 -1.234375 -0.375q-0.640625 -0.171875 -1.328125 -0.328125q-0.6875 -0.15625 -1.34375 -0.34375q-0.640625 -0.1875 -1.234375 -0.421875q-0.578125 -0.234375 -1.015625 -0.546875q-0.421875 -0.328125 -0.6875 -0.734375q-0.25 -0.421875 -0.25 -0.96875q0 -0.53125 0.203125 -0.953125q0.203125 -0.421875 0.5625 -0.71875q0.359375 -0.3125 0.828125 -0.515625q0.484375 -0.203125 1.015625 -0.328125q0.546875 -0.125 1.125 -0.171875q0.59375 -0.0625 1.171875 -0.0625q0.625 0 1.171875 0.0625q0.5625 0.046875 1.078125 0.140625q0.53125 0.09375 1.015625 0.21875q0.5 0.109375 1.015625 0.234375l0 1.125zm19.65625 9.15625l0 -1.1875q-0.5625 0.296875 -1.28125 0.5625q-0.71875 0.25 -1.515625 0.453125q-0.78125 0.1875 -1.625 0.28125q-0.828125 0.109375 -1.640625 0.109375q-1.046875 0 -1.875 -0.203125q-0.828125 -0.1875 -1.40625 -0.546875q-0.578125 -0.375 -0.890625 -0.921875q-0.3125 -0.5625 -0.3125 -1.28125q0 -0.71875 0.359375 -1.265625q0.359375 -0.5625 1.03125 -0.96875q0.671875 -0.40625 1.625 -0.6875q0.953125 -0.296875 2.125 -0.484375q1.171875 -0.203125 2.53125 -0.328125q1.359375 -0.140625 2.875 -0.21875l0 -0.828125q0 -0.5 -0.1875 -0.875q-0.1875 -0.390625 -0.53125 -0.671875q-0.328125 -0.28125 -0.78125 -0.46875q-0.453125 -0.203125 -0.984375 -0.3125q-0.53125 -0.125 -1.109375 -0.171875q-0.578125 -0.046875 -1.171875 -0.046875q-0.78125 0 -1.4375 0.078125q-0.640625 0.078125 -1.203125 0.21875q-0.5625 0.125 -1.078125 0.3125q-0.515625 0.171875 -1.046875 0.375l0 -1.140625q1.09375 -0.28125 2.3125 -0.5q1.234375 -0.21875 2.625 -0.21875q1.171875 0 2.1875 0.203125q1.015625 0.203125 1.765625 0.640625q0.75 0.4375 1.171875 1.125q0.4375 0.6875 0.4375 1.6875l0 7.28125l-0.96875 0zm0 -5.828125q-2.5625 0.140625 -4.375 0.40625q-1.796875 0.25 -2.953125 0.625q-1.140625 0.375 -1.6875 0.875q-0.53125 0.5 -0.53125 1.140625q0 0.515625 0.265625 0.921875q0.265625 0.390625 0.75 0.65625q0.5 0.265625 1.203125 0.40625q0.703125 0.140625 1.578125 0.140625q0.515625 0 1.0625 -0.0625q0.546875 -0.0625 1.09375 -0.15625q0.546875 -0.109375 1.078125 -0.25q0.53125 -0.15625 1.0 -0.328125q0.46875 -0.171875 0.859375 -0.359375q0.390625 -0.203125 0.65625 -0.40625l0 -3.609375zm14.8828125 5.828125l0 -7.09375q0 -0.890625 -0.25 -1.453125q-0.234375 -0.578125 -0.671875 -0.90625q-0.4375 -0.34375 -1.078125 -0.46875q-0.625 -0.140625 -1.421875 -0.140625q-0.90625 0 -1.796875 0.21875q-0.875 0.21875 -1.65625 0.5625q-0.78125 0.34375 -1.4375 0.765625q-0.65625 0.40625 -1.109375 0.78125l0 7.734375l-0.96875 0l0 -10.734375l0.96875 0l0 1.875q0.546875 -0.34375 1.203125 -0.71875q0.671875 -0.375 1.421875 -0.6875q0.765625 -0.328125 1.625 -0.53125q0.875 -0.203125 1.84375 -0.203125q1.078125 0 1.890625 0.265625q0.8125 0.265625 1.34375 0.75q0.53125 0.46875 0.796875 1.15625q0.265625 0.6875 0.265625 1.53125l0 7.296875l-0.96875 0zm16.257812 -5.375q0 1.03125 -0.21875 1.828125q-0.21875 0.796875 -0.609375 1.390625q-0.390625 0.59375 -0.953125 1.015625q-0.546875 0.40625 -1.234375 0.65625q-0.6875 0.25 -1.484375 0.375q-0.796875 0.109375 -1.6875 0.109375l-5.53125 0l0 -10.734375l5.515625 0q1.328125 0 2.453125 0.265625q1.140625 0.25 1.96875 0.875q0.828125 0.609375 1.296875 1.640625q0.484375 1.03125 0.484375 2.578125zm-1.015625 0q0 -0.875 -0.171875 -1.546875q-0.171875 -0.671875 -0.5 -1.171875q-0.3125 -0.5 -0.78125 -0.828125q-0.453125 -0.34375 -1.03125 -0.546875q-0.578125 -0.203125 -1.265625 -0.28125q-0.671875 -0.09375 -1.4375 -0.09375l-4.546875 0l0 8.9375l4.546875 0q1.15625 0 2.109375 -0.203125q0.953125 -0.203125 1.625 -0.71875q0.6875 -0.515625 1.0625 -1.375q0.390625 -0.859375 0.390625 -2.171875zm18.546875 -3.78125q-0.3125 -0.140625 -0.71875 -0.3125q-0.390625 -0.171875 -0.90625 -0.296875q-0.5 -0.140625 -1.140625 -0.21875q-0.640625 -0.09375 -1.421875 -0.09375q-0.953125 0 -1.6875 0.109375q-0.734375 0.109375 -1.25 0.34375q-0.515625 0.21875 -0.78125 0.578125q-0.265625 0.34375 -0.265625 0.828125q0 0.40625 0.25 0.71875q0.25 0.296875 0.6875 0.53125q0.4375 0.234375 1.015625 0.4375q0.578125 0.1875 1.234375 0.359375q0.65625 0.15625 1.34375 0.328125q0.6875 0.171875 1.34375 0.375q0.65625 0.203125 1.234375 0.453125q0.578125 0.234375 1.015625 0.5625q0.4375 0.328125 0.6875 0.75q0.25 0.421875 0.25 0.984375q0 0.59375 -0.234375 1.046875q-0.21875 0.453125 -0.609375 0.78125q-0.375 0.3125 -0.90625 0.53125q-0.515625 0.21875 -1.109375 0.34375q-0.578125 0.125 -1.21875 0.171875q-0.625 0.0625 -1.234375 0.0625q-1.390625 0 -2.53125 -0.21875q-1.140625 -0.203125 -2.171875 -0.546875l0 -1.203125q1.0625 0.640625 2.25 0.875q1.1875 0.234375 2.484375 0.234375q0.921875 0 1.703125 -0.109375q0.78125 -0.109375 1.34375 -0.34375q0.578125 -0.25 0.890625 -0.625q0.328125 -0.390625 0.328125 -0.9375q0 -0.453125 -0.265625 -0.78125q-0.25 -0.34375 -0.6875 -0.59375q-0.421875 -0.25 -1.015625 -0.4375q-0.578125 -0.203125 -1.234375 -0.375q-0.640625 -0.171875 -1.328125 -0.328125q-0.6875 -0.15625 -1.34375 -0.34375q-0.640625 -0.1875 -1.234375 -0.421875q-0.578125 -0.234375 -1.015625 -0.546875q-0.421875 -0.328125 -0.6875 -0.734375q-0.25 -0.421875 -0.25 -0.96875q0 -0.53125 0.203125 -0.953125q0.203125 -0.421875 0.5625 -0.71875q0.359375 -0.3125 0.828125 -0.515625q0.484375 -0.203125 1.015625 -0.328125q0.546875 -0.125 1.125 -0.171875q0.59375 -0.0625 1.171875 -0.0625q0.625 0 1.171875 0.0625q0.5625 0.046875 1.078125 0.140625q0.53125 0.09375 1.015625 0.21875q0.5 0.109375 1.015625 0.234375l0 1.125zm16.796875 3.796875q0 1.4375 -0.53125 2.5q-0.515625 1.046875 -1.4375 1.734375q-0.90625 0.671875 -2.15625 1.015625q-1.234375 0.328125 -2.671875 0.328125q-1.4375 0 -2.6875 -0.328125q-1.25 -0.34375 -2.171875 -1.015625q-0.921875 -0.6875 -1.453125 -1.734375q-0.515625 -1.0625 -0.515625 -2.5q0 -0.96875 0.234375 -1.75q0.25 -0.78125 0.6875 -1.40625q0.4375 -0.625 1.046875 -1.078125q0.625 -0.453125 1.390625 -0.75q0.765625 -0.296875 1.640625 -0.4375q0.875 -0.15625 1.828125 -0.15625q1.4375 0 2.671875 0.328125q1.25 0.328125 2.15625 1.015625q0.921875 0.6875 1.4375 1.734375q0.53125 1.046875 0.53125 2.5zm-1.0 0q0 -1.140625 -0.375 -2.015625q-0.375 -0.875 -1.109375 -1.46875q-0.71875 -0.609375 -1.796875 -0.90625q-1.078125 -0.3125 -2.515625 -0.3125q-1.421875 0 -2.515625 0.3125q-1.09375 0.3125 -1.828125 0.90625q-0.734375 0.59375 -1.109375 1.484375q-0.375 0.875 -0.375 2.0q0 1.140625 0.375 2.015625q0.375 0.875 1.109375 1.46875q0.734375 0.59375 1.828125 0.90625q1.09375 0.3125 2.515625 0.3125q1.4375 0 2.515625 -0.3125q1.078125 -0.3125 1.796875 -0.90625q0.734375 -0.59375 1.109375 -1.46875q0.375 -0.875 0.375 -2.015625zm4.8359375 1.640625q0 0.734375 0.109375 1.265625q0.125 0.515625 0.5 0.859375q0.375 0.328125 1.078125 0.484375q0.71875 0.15625 1.890625 0.15625l4.84375 0l0 0.953125l-5.046875 0q-1.28125 0 -2.125 -0.203125q-0.84375 -0.21875 -1.34375 -0.640625q-0.484375 -0.4375 -0.6875 -1.09375q-0.1875 -0.671875 -0.1875 -1.59375l0 -7.203125l0.96875 0l0 7.015625zm10.390625 3.71875l0 -10.734375l0.96875 0l0 10.734375l-0.96875 0zm16.3125 -5.375q0 1.03125 -0.21875 1.828125q-0.21875 0.796875 -0.609375 1.390625q-0.390625 0.59375 -0.953125 1.015625q-0.546875 0.40625 -1.234375 0.65625q-0.6875 0.25 -1.484375 0.375q-0.796875 0.109375 -1.6875 0.109375l-5.53125 0l0 -10.734375l5.515625 0q1.328125 0 2.453125 0.265625q1.140625 0.25 1.96875 0.875q0.828125 0.609375 1.296875 1.640625q0.484375 1.03125 0.484375 2.578125zm-1.015625 0q0 -0.875 -0.171875 -1.546875q-0.171875 -0.671875 -0.5 -1.171875q-0.3125 -0.5 -0.78125 -0.828125q-0.453125 -0.34375 -1.03125 -0.546875q-0.578125 -0.203125 -1.265625 -0.28125q-0.671875 -0.09375 -1.4375 -0.09375l-4.546875 0l0 8.9375l4.546875 0q1.15625 0 2.109375 -0.203125q0.953125 -0.203125 1.625 -0.71875q0.6875 -0.515625 1.0625 -1.375q0.390625 -0.859375 0.390625 -2.171875zm12.53125 -3.78125q-0.3125 -0.140625 -0.71875 -0.3125q-0.390625 -0.171875 -0.90625 -0.296875q-0.5 -0.140625 -1.140625 -0.21875q-0.640625 -0.09375 -1.421875 -0.09375q-0.953125 0 -1.6875 0.109375q-0.734375 0.109375 -1.25 0.34375q-0.515625 0.21875 -0.78125 0.578125q-0.265625 0.34375 -0.265625 0.828125q0 0.40625 0.25 0.71875q0.25 0.296875 0.6875 0.53125q0.4375 0.234375 1.015625 0.4375q0.578125 0.1875 1.234375 0.359375q0.65625 0.15625 1.34375 0.328125q0.6875 0.171875 1.34375 0.375q0.65625 0.203125 1.234375 0.453125q0.578125 0.234375 1.015625 0.5625q0.4375 0.328125 0.6875 0.75q0.25 0.421875 0.25 0.984375q0 0.59375 -0.234375 1.046875q-0.21875 0.453125 -0.609375 0.78125q-0.375 0.3125 -0.90625 0.53125q-0.515625 0.21875 -1.109375 0.34375q-0.578125 0.125 -1.21875 0.171875q-0.625 0.0625 -1.234375 0.0625q-1.390625 0 -2.53125 -0.21875q-1.140625 -0.203125 -2.171875 -0.546875l0 -1.203125q1.0625 0.640625 2.25 0.875q1.1875 0.234375 2.484375 0.234375q0.921875 0 1.703125 -0.109375q0.78125 -0.109375 1.34375 -0.34375q0.578125 -0.25 0.890625 -0.625q0.328125 -0.390625 0.328125 -0.9375q0 -0.453125 -0.265625 -0.78125q-0.25 -0.34375 -0.6875 -0.59375q-0.421875 -0.25 -1.015625 -0.4375q-0.578125 -0.203125 -1.234375 -0.375q-0.640625 -0.171875 -1.328125 -0.328125q-0.6875 -0.15625 -1.34375 -0.34375q-0.640625 -0.1875 -1.234375 -0.421875q-0.578125 -0.234375 -1.015625 -0.546875q-0.421875 -0.328125 -0.6875 -0.734375q-0.25 -0.421875 -0.25 -0.96875q0 -0.53125 0.203125 -0.953125q0.203125 -0.421875 0.5625 -0.71875q0.359375 -0.3125 0.828125 -0.515625q0.484375 -0.203125 1.015625 -0.328125q0.546875 -0.125 1.125 -0.171875q0.59375 -0.0625 1.171875 -0.0625q0.625 0 1.171875 0.0625q0.5625 0.046875 1.078125 0.140625q0.53125 0.09375 1.015625 0.21875q0.5 0.109375 1.015625 0.234375l0 1.125z" fill-rule="nonzero"></path><path fill="#000000" fill-opacity="0.0" d="m689.5932 274.93176l200.94489 0l0 45.795258l-200.94489 0z" fill-rule="nonzero"></path><path fill="#000000" d="m719.2026 310.58926l-11.96875 0l-2.015625 4.0625l-6.46875 0l11.234375 -21.46875l6.46875 0l11.234375 21.46875l-6.46875 0l-2.015625 -4.0625zm-9.890625 -4.1875l7.84375 0l-3.90625 -7.90625l-3.9375 7.90625zm41.640625 -8.359375q-0.234375 -0.078125 -0.6875 -0.203125q-0.4375 -0.140625 -1.03125 -0.265625q-0.59375 -0.140625 -1.3125 -0.234375q-0.703125 -0.09375 -1.453125 -0.09375q-1.5625 0 -2.921875 0.390625q-1.34375 0.375 -2.515625 1.015625q-1.171875 0.625 -2.1875 1.4375q-1.0 0.796875 -1.84375 1.640625l0 12.921875l-5.796875 0l0 -21.46875l5.796875 0l0 3.484375q1.046875 -0.78125 2.140625 -1.5q1.109375 -0.734375 2.296875 -1.296875q1.203125 -0.5625 2.53125 -0.890625q1.328125 -0.34375 2.8125 -0.34375q0.5625 0 1.140625 0.0625q0.59375 0.046875 1.140625 0.125q0.5625 0.078125 1.046875 0.171875q0.484375 0.09375 0.84375 0.1875l0 4.859375l0 0zm23.421875 0q-0.234375 -0.078125 -0.6875 -0.203125q-0.4375 -0.140625 -1.03125 -0.265625q-0.59375 -0.140625 -1.3125 -0.234375q-0.703125 -0.09375 -1.453125 -0.09375q-1.5625 0 -2.921875 0.390625q-1.34375 0.375 -2.515625 1.015625q-1.171875 0.625 -2.1875 1.4375q-1.0 0.796875 -1.84375 1.640625l0 12.921875l-5.796875 0l0 -21.46875l5.796875 0l0 3.484375q1.046875 -0.78125 2.140625 -1.5q1.109375 -0.734375 2.296875 -1.296875q1.203125 -0.5625 2.53125 -0.890625q1.328125 -0.34375 2.8125 -0.34375q0.5625 0 1.140625 0.0625q0.59375 0.046875 1.140625 0.125q0.5625 0.078125 1.046875 0.171875q0.484375 0.09375 0.84375 0.1875l0 4.859375l0 0zm31.453125 5.890625q0 2.765625 -1.015625 4.890625q-1.015625 2.109375 -2.90625 3.53125q-1.890625 1.421875 -4.59375 2.15625q-2.6875 0.71875 -6.046875 0.71875q-3.359375 0 -6.078125 -0.71875q-2.703125 -0.734375 -4.609375 -2.15625q-1.90625 -1.421875 -2.9375 -3.53125q-1.03125 -2.125 -1.03125 -4.890625q0 -2.765625 1.03125 -4.875q1.03125 -2.125 2.9375 -3.546875q1.90625 -1.421875 4.609375 -2.140625q2.71875 -0.734375 6.078125 -0.734375q3.359375 0 6.046875 0.734375q2.703125 0.71875 4.59375 2.140625q1.890625 1.421875 2.90625 3.546875q1.015625 2.109375 1.015625 4.875zm-5.859375 0q0 -1.203125 -0.390625 -2.390625q-0.375 -1.203125 -1.359375 -2.15625q-0.96875 -0.953125 -2.65625 -1.546875q-1.6875 -0.59375 -4.296875 -0.59375q-1.75 0 -3.078125 0.28125q-1.328125 0.265625 -2.296875 0.75q-0.96875 0.484375 -1.625 1.140625q-0.65625 0.640625 -1.046875 1.390625q-0.390625 0.734375 -0.5625 1.546875q-0.15625 0.796875 -0.15625 1.578125q0 0.796875 0.15625 1.609375q0.171875 0.8125 0.5625 1.5625q0.390625 0.734375 1.046875 1.375q0.65625 0.640625 1.625 1.125q0.96875 0.46875 2.296875 0.75q1.328125 0.265625 3.078125 0.265625q2.609375 0 4.296875 -0.59375q1.6875 -0.59375 2.65625 -1.546875q0.984375 -0.953125 1.359375 -2.140625q0.390625 -1.203125 0.390625 -2.40625zm32.0 -10.75l5.484375 14.90625l5.9375 -14.90625l6.015625 0l-8.625 21.46875l-6.4375 0l-5.609375 -14.4375l-5.59375 14.4375l-6.4375 0l-8.640625 -21.46875l6.03125 0l5.8125 14.59375l5.609375 -14.59375l6.453125 0zm40.90625 6.046875q-0.609375 -0.296875 -1.609375 -0.671875q-1.0 -0.375 -2.265625 -0.703125q-1.265625 -0.34375 -2.75 -0.5625q-1.484375 -0.234375 -3.046875 -0.234375q-1.25 0 -2.140625 0.078125q-0.875 0.078125 -1.484375 0.203125q-0.59375 0.125 -0.953125 0.296875q-0.34375 0.15625 -0.53125 0.328125q-0.1875 0.171875 -0.25 0.34375q-0.046875 0.171875 -0.046875 0.3125q0 0.46875 0.46875 0.828125q0.46875 0.34375 1.28125 0.625q0.8125 0.265625 1.890625 0.515625q1.078125 0.234375 2.28125 0.5q1.21875 0.25 2.5 0.5625q1.296875 0.296875 2.5 0.703125q1.21875 0.40625 2.296875 0.953125q1.078125 0.53125 1.890625 1.25q0.8125 0.71875 1.28125 1.65625q0.46875 0.9375 0.46875 2.140625q0 1.546875 -0.546875 2.65625q-0.546875 1.109375 -1.46875 1.875q-0.90625 0.765625 -2.109375 1.234375q-1.203125 0.453125 -2.53125 0.703125q-1.3125 0.25 -2.671875 0.328125q-1.34375 0.078125 -2.5625 0.078125q-3.1875 0 -5.90625 -0.53125q-2.703125 -0.515625 -4.78125 -1.296875l0 -5.125q2.140625 1.1875 4.875 1.859375q2.75 0.671875 5.875 0.671875q1.84375 0 3.0 -0.1875q1.171875 -0.203125 1.828125 -0.5q0.65625 -0.3125 0.890625 -0.671875q0.234375 -0.359375 0.234375 -0.6875q0 -0.515625 -0.46875 -0.890625q-0.46875 -0.390625 -1.28125 -0.671875q-0.8125 -0.296875 -1.890625 -0.53125q-1.078125 -0.25 -2.296875 -0.484375q-1.203125 -0.25 -2.484375 -0.53125q-1.28125 -0.28125 -2.5 -0.65625q-1.203125 -0.390625 -2.28125 -0.890625q-1.078125 -0.515625 -1.890625 -1.203125q-0.8125 -0.703125 -1.28125 -1.609375q-0.46875 -0.921875 -0.46875 -2.125q0 -1.421875 0.5 -2.453125q0.5 -1.03125 1.34375 -1.75q0.859375 -0.734375 1.96875 -1.1875q1.125 -0.453125 2.359375 -0.703125q1.234375 -0.25 2.5 -0.34375q1.265625 -0.09375 2.40625 -0.09375q1.25 0 2.5625 0.125q1.328125 0.125 2.609375 0.359375q1.28125 0.21875 2.46875 0.515625q1.203125 0.296875 2.21875 0.625l0 4.96875z" fill-rule="nonzero"></path><path fill="#000000" fill-opacity="0.0" d="m698.31494 232.35695l176.62994 0l0 45.795273l-176.62994 0z" fill-rule="nonzero"></path><path fill="#000000" d="m711.4868 257.50632l0 6.890625l-1.46875 0l0 -16.10936l8.015625 0q1.84375 0 3.15625 0.296875q1.3125 0.28125 2.140625 0.859375q0.84375 0.578125 1.234375 1.453125q0.390625 0.859375 0.390625 2.03125q0 1.796875 -0.953125 2.890625q-0.953125 1.0781097 -3.0625 1.4687347l5.5 7.109375l-1.84375 0l-5.1875 -6.9375q-0.328125 0.015625 -0.671875 0.03125q-0.328125 0.015625 -0.703125 0.015625l-6.546875 0zm11.953125 -4.5781097q0 -1.03125 -0.359375 -1.671875q-0.359375 -0.640625 -1.1875 -0.984375q-0.8125 -0.359375 -2.15625 -0.484375q-1.328125 -0.125 -3.25 -0.125l-5.0 0l0 6.4687347l4.953125 0q1.921875 0 3.25 -0.109375q1.34375 -0.10935974 2.171875 -0.45310974q0.84375 -0.34375 1.203125 -0.96875q0.375 -0.640625 0.375 -1.671875zm22.804688 10.624985q-0.984375 0.296875 -1.828125 0.515625q-0.84375 0.21875 -1.671875 0.359375q-0.8125 0.140625 -1.671875 0.203125q-0.84375 0.0625 -1.859375 0.0625q-2.359375 0 -4.28125 -0.578125q-1.90625 -0.578125 -3.25 -1.640625q-1.34375 -1.078125 -2.078125 -2.59375q-0.71875 -1.53125 -0.71875 -3.4375q0 -1.8281097 0.703125 -3.3593597q0.703125 -1.546875 1.953125 -2.640625q1.25 -1.109375 3.0 -1.71875q1.75 -0.609375 3.859375 -0.609375q2.1875 0 3.890625 0.59375q1.71875 0.578125 2.890625 1.671875q1.171875 1.09375 1.78125 2.640625q0.609375 1.546875 0.609375 3.4999847l0 0.359375l-17.171875 0q0.125 1.5 0.75 2.71875q0.625 1.203125 1.765625 2.046875q1.140625 0.84375 2.8125 1.296875q1.671875 0.4375 3.890625 0.4375q0.953125 0 1.921875 -0.125q0.984375 -0.125 1.875 -0.34375q0.890625 -0.21875 1.625 -0.484375q0.734375 -0.28125 1.203125 -0.578125l0 1.703125zm-0.109375 -7.9531097q-0.09375 -1.21875 -0.5625 -2.34375q-0.46875 -1.125 -1.40625 -1.96875q-0.921875 -0.859375 -2.359375 -1.359375q-1.4375 -0.515625 -3.4375 -0.515625q-1.890625 0 -3.3125 0.515625q-1.40625 0.5 -2.390625 1.359375q-0.984375 0.84375 -1.546875 1.96875q-0.5625 1.109375 -0.71875 2.34375l15.734375 0zm20.296875 8.79686l0 -1.78125q-0.84375 0.453125 -1.921875 0.84375q-1.0625 0.390625 -2.25 0.671875q-1.1875 0.28125 -2.453125 0.421875q-1.25 0.15625 -2.453125 0.15625q-1.5625 0 -2.8125 -0.28125q-1.25 -0.28125 -2.125 -0.828125q-0.859375 -0.5625 -1.328125 -1.390625q-0.46875 -0.828125 -0.46875 -1.921875q0 -1.078125 0.546875 -1.890625q0.546875 -0.828125 1.546875 -1.4375q1.015625 -0.625 2.4375 -1.0468597q1.421875 -0.4375 3.171875 -0.734375q1.765625 -0.296875 3.8125 -0.484375q2.046875 -0.203125 4.296875 -0.328125l0 -1.234375q0 -0.75 -0.28125 -1.3125q-0.28125 -0.578125 -0.78125 -1.0q-0.5 -0.4375 -1.1875 -0.71875q-0.671875 -0.296875 -1.46875 -0.46875q-0.78125 -0.171875 -1.65625 -0.25q-0.875 -0.078125 -1.75 -0.078125q-1.1875 0 -2.171875 0.125q-0.96875 0.109375 -1.8125 0.3125q-0.84375 0.203125 -1.625 0.484375q-0.765625 0.265625 -1.546875 0.5625l0 -1.703125q1.625 -0.4375 3.46875 -0.75q1.859375 -0.328125 3.921875 -0.328125q1.765625 0 3.28125 0.296875q1.53125 0.296875 2.65625 0.953125q1.125 0.65625 1.765625 1.703125q0.640625 1.03125 0.640625 2.515625l0 10.92186l-1.453125 0zm0 -8.73436q-3.828125 0.21875 -6.546875 0.60935974q-2.703125 0.375 -4.4375 0.9375q-1.71875 0.5625 -2.515625 1.3125q-0.796875 0.75 -0.796875 1.703125q0 0.765625 0.390625 1.375q0.390625 0.59375 1.125 1.0q0.734375 0.40625 1.78125 0.609375q1.0625 0.203125 2.375 0.203125q0.78125 0 1.609375 -0.078125q0.828125 -0.09375 1.640625 -0.25q0.828125 -0.171875 1.625 -0.375q0.796875 -0.21875 1.5 -0.46875q0.703125 -0.265625 1.28125 -0.5625q0.578125 -0.296875 0.96875 -0.59375l0 -5.4218597zm23.253906 7.4531097q-0.84375 0.359375 -1.671875 0.65625q-0.828125 0.28125 -1.71875 0.5q-0.890625 0.203125 -1.875 0.3125q-0.984375 0.125 -2.140625 0.125q-1.421875 0 -2.75 -0.234375q-1.3125 -0.234375 -2.453125 -0.703125q-1.140625 -0.46875 -2.0625 -1.15625q-0.921875 -0.703125 -1.59375 -1.625q-0.65625 -0.9375 -1.015625 -2.09375q-0.359375 -1.15625 -0.359375 -2.546875q0 -1.3749847 0.359375 -2.5312347q0.359375 -1.171875 1.015625 -2.09375q0.671875 -0.921875 1.59375 -1.609375q0.921875 -0.703125 2.0625 -1.171875q1.140625 -0.46875 2.453125 -0.703125q1.3125 -0.234375 2.75 -0.234375q1.15625 0 2.140625 0.125q0.984375 0.109375 1.875 0.328125q0.890625 0.203125 1.71875 0.484375q0.828125 0.28125 1.671875 0.640625l0 1.75q-0.671875 -0.421875 -1.4375 -0.796875q-0.75 -0.375 -1.640625 -0.65625q-0.875 -0.28125 -1.890625 -0.4375q-1.0 -0.171875 -2.15625 -0.171875q-2.3125 0 -4.015625 0.515625q-1.703125 0.5 -2.8125 1.421875q-1.109375 0.921875 -1.640625 2.234375q-0.53125 1.296875 -0.53125 2.9062347q0 1.625 0.53125 2.921875q0.53125 1.296875 1.640625 2.21875q1.109375 0.921875 2.8125 1.421875q1.703125 0.5 4.015625 0.5q1.15625 0 2.171875 -0.15625q1.03125 -0.171875 1.921875 -0.453125q0.90625 -0.28125 1.65625 -0.640625q0.75 -0.375 1.375 -0.796875l0 1.75l0 0zm10.875 -13.48436l0 14.76561l-1.453125 0l0 -14.76561l-7.328125 0l0 -1.34375l16.109375 0l0 1.34375l-7.328125 0zm10.484375 14.76561l0 -16.10936l1.46875 0l0 16.10936l-1.46875 0zm26.21875 -8.046875q0 2.171875 -0.78125 3.75q-0.78125 1.578125 -2.15625 2.609375q-1.375 1.015625 -3.234375 1.515625q-1.859375 0.484375 -4.015625 0.484375q-2.171875 0 -4.046875 -0.484375q-1.875 -0.5 -3.265625 -1.515625q-1.375 -1.03125 -2.171875 -2.609375q-0.78125 -1.578125 -0.78125 -3.75q0 -1.4374847 0.359375 -2.6093597q0.375 -1.1875 1.03125 -2.109375q0.65625 -0.9375 1.578125 -1.609375q0.9375 -0.6875 2.078125 -1.140625q1.140625 -0.453125 2.453125 -0.65625q1.3125 -0.21875 2.765625 -0.21875q2.15625 0 4.015625 0.5q1.859375 0.484375 3.234375 1.515625q1.375 1.015625 2.15625 2.59375q0.78125 1.578125 0.78125 3.7343597zm-1.515625 0q0 -1.7031097 -0.5625 -3.0156097q-0.546875 -1.3125 -1.640625 -2.203125q-1.078125 -0.90625 -2.703125 -1.359375q-1.625 -0.46875 -3.765625 -0.46875q-2.15625 0 -3.796875 0.46875q-1.625 0.46875 -2.734375 1.375q-1.09375 0.890625 -1.65625 2.203125q-0.5625 1.3125 -0.5625 2.9999847q0 1.71875 0.5625 3.03125q0.5625 1.3125 1.65625 2.21875q1.109375 0.890625 2.734375 1.359375q1.640625 0.453125 3.796875 0.453125q2.140625 0 3.765625 -0.453125q1.625 -0.46875 2.703125 -1.359375q1.09375 -0.90625 1.640625 -2.21875q0.5625 -1.3125 0.5625 -3.03125zm21.394531 8.046875l0 -10.624985q0 -1.34375 -0.359375 -2.203125q-0.359375 -0.859375 -1.03125 -1.359375q-0.65625 -0.515625 -1.609375 -0.703125q-0.9375 -0.203125 -2.125 -0.203125q-1.375 0 -2.6875 0.34375q-1.3125 0.328125 -2.484375 0.84375q-1.171875 0.5 -2.15625 1.125q-0.984375 0.609375 -1.671875 1.1875l0 11.593735l-1.46875 0l0 -16.10936l1.46875 0l0 2.828125q0.828125 -0.515625 1.8125 -1.078125q0.984375 -0.578125 2.125 -1.046875q1.15625 -0.46875 2.453125 -0.765625q1.296875 -0.3125 2.734375 -0.3125q1.640625 0 2.84375 0.390625q1.21875 0.390625 2.015625 1.109375q0.8125 0.71875 1.203125 1.75q0.40625 1.015625 0.40625 2.28125l0 10.95311l-1.46875 0z" fill-rule="nonzero"></path></g></svg>

